<mxfile host="app.diagrams.net" modified="2024-01-26T02:22:51.184Z" agent="Mozilla/5.0 (Windows NT 10.0; Win64; x64) AppleWebKit/537.36 (KHTML, like Gecko) Chrome/120.0.0.0 Safari/537.36 Edg/120.0.0.0" etag="B6hURuU3ENZspU0Qw8Ot" version="23.0.2" type="github">
  <diagram id="prtHgNgQTEPvFCAcTncT" name="Page-1">
    <mxGraphModel dx="6860" dy="7370" grid="1" gridSize="10" guides="1" tooltips="1" connect="1" arrows="1" fold="1" page="1" pageScale="1" pageWidth="827" pageHeight="1169" math="0" shadow="0">
      <root>
        <mxCell id="0" />
        <mxCell id="1" parent="0" />
        <mxCell id="36Q72L7F-0GuTDko1-9C-20" value="" style="rounded=0;whiteSpace=wrap;html=1;strokeWidth=4;" parent="1" vertex="1">
          <mxGeometry x="4535" y="2880" width="2330" height="4950" as="geometry" />
        </mxCell>
        <mxCell id="36Q72L7F-0GuTDko1-9C-21" value="제조시간 &lt;br&gt;예측분석" style="rounded=0;whiteSpace=wrap;html=1;fontSize=50;strokeWidth=4;" parent="1" vertex="1">
          <mxGeometry x="5945" y="7236" width="400" height="150" as="geometry" />
        </mxCell>
        <mxCell id="36Q72L7F-0GuTDko1-9C-22" value="공정기준" style="rounded=0;whiteSpace=wrap;html=1;fontSize=50;strokeWidth=4;" parent="1" vertex="1">
          <mxGeometry x="5945" y="3405" width="400" height="150" as="geometry" />
        </mxCell>
        <mxCell id="36Q72L7F-0GuTDko1-9C-23" value="작업지시서" style="rounded=0;whiteSpace=wrap;html=1;fontSize=50;strokeWidth=4;" parent="1" vertex="1">
          <mxGeometry x="4985" y="3160" width="400" height="150" as="geometry" />
        </mxCell>
        <mxCell id="36Q72L7F-0GuTDko1-9C-24" value="공정단계" style="rounded=0;whiteSpace=wrap;html=1;fontSize=50;strokeWidth=4;" parent="1" vertex="1">
          <mxGeometry x="4985" y="2990" width="400" height="150" as="geometry" />
        </mxCell>
        <mxCell id="36Q72L7F-0GuTDko1-9C-25" value="예측분석관리" style="rounded=0;whiteSpace=wrap;html=1;fontSize=50;strokeWidth=4;" parent="1" vertex="1">
          <mxGeometry x="4985" y="7320" width="400" height="150" as="geometry" />
        </mxCell>
        <mxCell id="36Q72L7F-0GuTDko1-9C-26" value="거래처관리" style="rounded=0;whiteSpace=wrap;html=1;fontSize=50;strokeWidth=4;" parent="1" vertex="1">
          <mxGeometry x="4985" y="3330" width="400" height="150" as="geometry" />
        </mxCell>
        <mxCell id="36Q72L7F-0GuTDko1-9C-27" value="로그인" style="rhombus;whiteSpace=wrap;html=1;fontSize=100;strokeWidth=7;" parent="1" vertex="1">
          <mxGeometry x="125" y="4160" width="1150" height="840" as="geometry" />
        </mxCell>
        <mxCell id="36Q72L7F-0GuTDko1-9C-28" value="입고 관리" style="rounded=0;whiteSpace=wrap;html=1;fontSize=50;strokeWidth=4;" parent="1" vertex="1">
          <mxGeometry x="4985" y="6595" width="400" height="150" as="geometry" />
        </mxCell>
        <mxCell id="36Q72L7F-0GuTDko1-9C-29" value="재고관리" style="rounded=0;whiteSpace=wrap;html=1;fontSize=50;strokeWidth=4;" parent="1" vertex="1">
          <mxGeometry x="4985" y="5980" width="400" height="150" as="geometry" />
        </mxCell>
        <mxCell id="36Q72L7F-0GuTDko1-9C-30" value="프로필" style="rounded=0;whiteSpace=wrap;html=1;fontSize=100;strokeWidth=5;" parent="1" vertex="1">
          <mxGeometry x="3115" y="4450" width="730" height="500" as="geometry" />
        </mxCell>
        <mxCell id="36Q72L7F-0GuTDko1-9C-31" value="&lt;b style=&quot;font-size: 100px;&quot;&gt;모니터링&lt;/b&gt;" style="rounded=0;whiteSpace=wrap;html=1;fontSize=100;strokeWidth=5;" parent="1" vertex="1">
          <mxGeometry x="3115" y="3688" width="730" height="420" as="geometry" />
        </mxCell>
        <mxCell id="36Q72L7F-0GuTDko1-9C-32" value="구민 : 메인 , 모니터링&lt;br style=&quot;font-size: 200px;&quot;&gt;민영 : 프로필 , 로그인 , 모니터링&lt;br style=&quot;font-size: 200px;&quot;&gt;은별 : 재고 , 입고&lt;br style=&quot;font-size: 200px;&quot;&gt;의건 : 공정, 예측&lt;br style=&quot;font-size: 200px;&quot;&gt;지훈 : 생산계획, 생산실적&lt;br style=&quot;font-size: 200px;&quot;&gt;" style="shape=document;whiteSpace=wrap;html=1;boundedLbl=1;fontSize=200;" parent="1" vertex="1">
          <mxGeometry x="1383" y="710" width="3032" height="1880" as="geometry" />
        </mxCell>
        <mxCell id="36Q72L7F-0GuTDko1-9C-33" value="&lt;span style=&quot;font-size: 50px;&quot;&gt;거래처등록&lt;/span&gt;" style="rounded=0;whiteSpace=wrap;html=1;fontSize=50;strokeWidth=4;" parent="1" vertex="1">
          <mxGeometry x="5945" y="6860" width="400" height="150" as="geometry" />
        </mxCell>
        <mxCell id="36Q72L7F-0GuTDko1-9C-34" value="&lt;span style=&quot;font-size: 50px;&quot;&gt;품목등록&lt;/span&gt;" style="rounded=0;whiteSpace=wrap;html=1;fontSize=50;strokeWidth=4;" parent="1" vertex="1">
          <mxGeometry x="5945" y="6510" width="400" height="150" as="geometry" />
        </mxCell>
        <mxCell id="36Q72L7F-0GuTDko1-9C-35" value="&lt;span style=&quot;font-size: 50px;&quot;&gt;품목별단가조회 및 변경&lt;/span&gt;" style="rounded=0;whiteSpace=wrap;html=1;fontSize=50;strokeWidth=4;" parent="1" vertex="1">
          <mxGeometry x="5945" y="6680" width="400" height="150" as="geometry" />
        </mxCell>
        <mxCell id="36Q72L7F-0GuTDko1-9C-36" value="&lt;span style=&quot;font-size: 50px;&quot;&gt;구매조회/입력&lt;/span&gt;" style="rounded=0;whiteSpace=wrap;html=1;fontSize=50;strokeWidth=4;" parent="1" vertex="1">
          <mxGeometry x="5945" y="6340" width="400" height="150" as="geometry" />
        </mxCell>
        <mxCell id="36Q72L7F-0GuTDko1-9C-37" value="생산실적관리" style="rounded=0;whiteSpace=wrap;html=1;fontSize=50;strokeWidth=4;" parent="1" vertex="1">
          <mxGeometry x="5945" y="4300" width="400" height="150" as="geometry" />
        </mxCell>
        <mxCell id="36Q72L7F-0GuTDko1-9C-38" value="생산부품관리" style="rounded=0;whiteSpace=wrap;html=1;fontSize=50;strokeWidth=4;" parent="1" vertex="1">
          <mxGeometry x="4985" y="4030" width="400" height="150" as="geometry" />
        </mxCell>
        <mxCell id="36Q72L7F-0GuTDko1-9C-39" value="작업지시&lt;br style=&quot;font-size: 50px;&quot;&gt;설계 / 현황" style="rounded=0;whiteSpace=wrap;html=1;fontSize=50;strokeWidth=4;" parent="1" vertex="1">
          <mxGeometry x="4985" y="4945" width="400" height="150" as="geometry" />
        </mxCell>
        <mxCell id="36Q72L7F-0GuTDko1-9C-40" value="생산계획&lt;br style=&quot;font-size: 50px;&quot;&gt;수립 / 현황" style="rounded=0;whiteSpace=wrap;html=1;fontSize=50;strokeWidth=4;" parent="1" vertex="1">
          <mxGeometry x="4985" y="4770" width="400" height="150" as="geometry" />
        </mxCell>
        <mxCell id="36Q72L7F-0GuTDko1-9C-41" value="생산계획대비&lt;br style=&quot;font-size: 50px;&quot;&gt;실적현황" style="rounded=0;whiteSpace=wrap;html=1;fontSize=50;strokeWidth=4;" parent="1" vertex="1">
          <mxGeometry x="4985" y="5120" width="400" height="150" as="geometry" />
        </mxCell>
        <mxCell id="36Q72L7F-0GuTDko1-9C-42" value="작업지시대비&lt;br style=&quot;font-size: 50px;&quot;&gt;실적현황" style="rounded=0;whiteSpace=wrap;html=1;fontSize=50;strokeWidth=4;" parent="1" vertex="1">
          <mxGeometry x="4985" y="5300" width="400" height="150" as="geometry" />
        </mxCell>
        <mxCell id="36Q72L7F-0GuTDko1-9C-43" value="장비별&lt;br style=&quot;font-size: 50px;&quot;&gt;생산실적현황" style="rounded=0;whiteSpace=wrap;html=1;fontSize=50;strokeWidth=4;" parent="1" vertex="1">
          <mxGeometry x="4985" y="5480" width="400" height="150" as="geometry" />
        </mxCell>
        <mxCell id="36Q72L7F-0GuTDko1-9C-44" value="장비정보관리" style="rounded=0;whiteSpace=wrap;html=1;fontSize=50;strokeWidth=4;" parent="1" vertex="1">
          <mxGeometry x="4985" y="3490" width="400" height="150" as="geometry" />
        </mxCell>
        <mxCell id="36Q72L7F-0GuTDko1-9C-45" value="부품정보관리" style="rounded=0;whiteSpace=wrap;html=1;fontSize=50;strokeWidth=4;" parent="1" vertex="1">
          <mxGeometry x="4985" y="3660" width="400" height="150" as="geometry" />
        </mxCell>
        <mxCell id="36Q72L7F-0GuTDko1-9C-46" value="기초코드" style="rounded=0;whiteSpace=wrap;html=1;fontSize=50;strokeWidth=4;" parent="1" vertex="1">
          <mxGeometry x="4985" y="3823" width="400" height="150" as="geometry" />
        </mxCell>
        <mxCell id="36Q72L7F-0GuTDko1-9C-47" value="장비점검주기" style="rounded=0;whiteSpace=wrap;html=1;fontSize=50;strokeWidth=4;" parent="1" vertex="1">
          <mxGeometry x="5945" y="7400" width="400" height="150" as="geometry" />
        </mxCell>
        <mxCell id="36Q72L7F-0GuTDko1-9C-48" value="공구 수명 기준&lt;br style=&quot;font-size: 50px;&quot;&gt;불량 집계" style="rounded=0;whiteSpace=wrap;html=1;fontSize=50;strokeWidth=4;" parent="1" vertex="1">
          <mxGeometry x="5945" y="7070" width="400" height="150" as="geometry" />
        </mxCell>
        <mxCell id="36Q72L7F-0GuTDko1-9C-49" value="장비 수명 기준&lt;br style=&quot;font-size: 50px;&quot;&gt;불량 집계" style="rounded=0;whiteSpace=wrap;html=1;fontSize=50;strokeWidth=4;" parent="1" vertex="1">
          <mxGeometry x="5945" y="7570" width="400" height="150" as="geometry" />
        </mxCell>
        <mxCell id="36Q72L7F-0GuTDko1-9C-50" style="edgeStyle=orthogonalEdgeStyle;rounded=0;orthogonalLoop=1;jettySize=auto;html=1;entryX=0.5;entryY=0;entryDx=0;entryDy=0;strokeWidth=12;" parent="1" source="36Q72L7F-0GuTDko1-9C-51" target="36Q72L7F-0GuTDko1-9C-27" edge="1">
          <mxGeometry relative="1" as="geometry" />
        </mxCell>
        <mxCell id="36Q72L7F-0GuTDko1-9C-51" value="로그인 페이지&lt;br&gt;" style="rounded=0;whiteSpace=wrap;html=1;fontSize=100;strokeWidth=10;" parent="1" vertex="1">
          <mxGeometry x="100" y="2920" width="1200" height="420" as="geometry" />
        </mxCell>
        <mxCell id="36Q72L7F-0GuTDko1-9C-52" value="검색기능" style="rounded=0;whiteSpace=wrap;html=1;fontSize=100;strokeWidth=5;" parent="1" vertex="1">
          <mxGeometry x="3155" y="5650" width="700" height="500" as="geometry" />
        </mxCell>
        <mxCell id="36Q72L7F-0GuTDko1-9C-53" value="&lt;font style=&quot;font-size: 52px;&quot;&gt;공정 관리 시스템&lt;br style=&quot;font-size: 52px;&quot;&gt;&lt;/font&gt;" style="rounded=1;whiteSpace=wrap;html=1;fontSize=52;strokeWidth=7;" parent="1" vertex="1">
          <mxGeometry x="4815" y="2560" width="1660" height="230" as="geometry" />
        </mxCell>
        <mxCell id="36Q72L7F-0GuTDko1-9C-54" value="생산 계획관리" style="rounded=0;whiteSpace=wrap;html=1;fontSize=50;strokeWidth=4;" parent="1" vertex="1">
          <mxGeometry x="5945" y="5120" width="400" height="150" as="geometry" />
        </mxCell>
        <mxCell id="36Q72L7F-0GuTDko1-9C-55" value="세부공정생산&lt;br style=&quot;font-size: 50px;&quot;&gt;계획관리" style="rounded=0;whiteSpace=wrap;html=1;fontSize=50;strokeWidth=4;" parent="1" vertex="1">
          <mxGeometry x="4985" y="4210" width="400" height="150" as="geometry" />
        </mxCell>
        <mxCell id="36Q72L7F-0GuTDko1-9C-56" value="작업자별&lt;br style=&quot;font-size: 50px;&quot;&gt;일정현황" style="rounded=0;whiteSpace=wrap;html=1;fontSize=50;strokeWidth=4;" parent="1" vertex="1">
          <mxGeometry x="4985" y="4380" width="400" height="150" as="geometry" />
        </mxCell>
        <mxCell id="36Q72L7F-0GuTDko1-9C-57" value="공정별&lt;br style=&quot;font-size: 40px;&quot;&gt;작업지시&lt;br style=&quot;font-size: 40px;&quot;&gt;관리/출력" style="rounded=0;whiteSpace=wrap;html=1;fontSize=40;strokeWidth=4;" parent="1" vertex="1">
          <mxGeometry x="4985" y="4548" width="400" height="150" as="geometry" />
        </mxCell>
        <mxCell id="36Q72L7F-0GuTDko1-9C-58" value="완제품재고" style="rounded=0;whiteSpace=wrap;html=1;fontSize=50;verticalAlign=middle;strokeWidth=4;" parent="1" vertex="1">
          <mxGeometry x="5945" y="5637" width="400" height="150" as="geometry" />
        </mxCell>
        <mxCell id="36Q72L7F-0GuTDko1-9C-59" value="반제품재고" style="rounded=0;whiteSpace=wrap;html=1;fontSize=50;verticalAlign=middle;strokeWidth=4;" parent="1" vertex="1">
          <mxGeometry x="5945" y="5810" width="400" height="150" as="geometry" />
        </mxCell>
        <mxCell id="36Q72L7F-0GuTDko1-9C-60" value="출하조회/입력" style="rounded=0;whiteSpace=wrap;html=1;fontSize=50;verticalAlign=middle;strokeWidth=4;" parent="1" vertex="1">
          <mxGeometry x="5945" y="5980" width="400" height="150" as="geometry" />
        </mxCell>
        <mxCell id="36Q72L7F-0GuTDko1-9C-61" value="출하지시서 조회/입력" style="rounded=0;whiteSpace=wrap;html=1;fontSize=50;verticalAlign=middle;strokeWidth=4;" parent="1" vertex="1">
          <mxGeometry x="5945" y="6140" width="400" height="150" as="geometry" />
        </mxCell>
        <mxCell id="36Q72L7F-0GuTDko1-9C-62" style="edgeStyle=orthogonalEdgeStyle;rounded=0;orthogonalLoop=1;jettySize=auto;html=1;exitX=0.5;exitY=1;exitDx=0;exitDy=0;strokeWidth=4;" parent="1" source="36Q72L7F-0GuTDko1-9C-54" target="36Q72L7F-0GuTDko1-9C-54" edge="1">
          <mxGeometry relative="1" as="geometry" />
        </mxCell>
        <mxCell id="36Q72L7F-0GuTDko1-9C-63" value="관리자" style="shape=actor;whiteSpace=wrap;html=1;fontSize=100;strokeWidth=10;" parent="1" vertex="1">
          <mxGeometry x="3100" y="6660" width="790" height="890" as="geometry" />
        </mxCell>
        <mxCell id="36Q72L7F-0GuTDko1-9C-64" value="" style="group;strokeWidth=4;" parent="1" vertex="1" connectable="0">
          <mxGeometry x="5385" y="4840" width="560" height="710" as="geometry" />
        </mxCell>
        <mxCell id="36Q72L7F-0GuTDko1-9C-65" style="edgeStyle=orthogonalEdgeStyle;rounded=0;orthogonalLoop=1;jettySize=auto;html=1;exitX=0.5;exitY=1;exitDx=0;exitDy=0;strokeWidth=4;" parent="36Q72L7F-0GuTDko1-9C-64" edge="1">
          <mxGeometry relative="1" as="geometry">
            <mxPoint x="260" y="290" as="sourcePoint" />
            <mxPoint x="260" y="290" as="targetPoint" />
          </mxGeometry>
        </mxCell>
        <mxCell id="36Q72L7F-0GuTDko1-9C-66" value="" style="strokeWidth=4;html=1;shape=mxgraph.flowchart.annotation_2;align=left;labelPosition=right;pointerEvents=1;direction=west;" parent="36Q72L7F-0GuTDko1-9C-64" vertex="1">
          <mxGeometry width="560" height="710" as="geometry" />
        </mxCell>
        <mxCell id="36Q72L7F-0GuTDko1-9C-67" value="" style="endArrow=none;html=1;rounded=0;entryX=1.001;entryY=0.797;entryDx=0;entryDy=0;entryPerimeter=0;strokeWidth=4;" parent="36Q72L7F-0GuTDko1-9C-64" edge="1">
          <mxGeometry width="50" height="50" relative="1" as="geometry">
            <mxPoint x="281" y="179.47000000000025" as="sourcePoint" />
            <mxPoint y="179.47000000000025" as="targetPoint" />
          </mxGeometry>
        </mxCell>
        <mxCell id="36Q72L7F-0GuTDko1-9C-68" value="" style="endArrow=none;html=1;rounded=0;entryX=1.001;entryY=0.797;entryDx=0;entryDy=0;entryPerimeter=0;strokeWidth=4;" parent="36Q72L7F-0GuTDko1-9C-64" edge="1">
          <mxGeometry width="50" height="50" relative="1" as="geometry">
            <mxPoint x="281" y="354.47000000000025" as="sourcePoint" />
            <mxPoint y="354.47000000000025" as="targetPoint" />
          </mxGeometry>
        </mxCell>
        <mxCell id="36Q72L7F-0GuTDko1-9C-69" value="" style="endArrow=none;html=1;rounded=0;entryX=1.001;entryY=0.797;entryDx=0;entryDy=0;entryPerimeter=0;strokeWidth=4;" parent="36Q72L7F-0GuTDko1-9C-64" edge="1">
          <mxGeometry width="50" height="50" relative="1" as="geometry">
            <mxPoint x="281" y="534.4700000000003" as="sourcePoint" />
            <mxPoint y="534.4700000000003" as="targetPoint" />
          </mxGeometry>
        </mxCell>
        <mxCell id="36Q72L7F-0GuTDko1-9C-70" value="" style="group;strokeWidth=4;" parent="1" vertex="1" connectable="0">
          <mxGeometry x="5385" y="4100" width="560" height="520" as="geometry" />
        </mxCell>
        <mxCell id="36Q72L7F-0GuTDko1-9C-71" value="" style="strokeWidth=4;html=1;shape=mxgraph.flowchart.annotation_2;align=left;labelPosition=right;pointerEvents=1;direction=west;" parent="36Q72L7F-0GuTDko1-9C-70" vertex="1">
          <mxGeometry width="560" height="520" as="geometry" />
        </mxCell>
        <mxCell id="36Q72L7F-0GuTDko1-9C-72" value="" style="endArrow=none;html=1;rounded=0;entryX=1.001;entryY=0.797;entryDx=0;entryDy=0;entryPerimeter=0;strokeWidth=4;" parent="36Q72L7F-0GuTDko1-9C-70" edge="1">
          <mxGeometry width="50" height="50" relative="1" as="geometry">
            <mxPoint x="281" y="360" as="sourcePoint" />
            <mxPoint y="360" as="targetPoint" />
          </mxGeometry>
        </mxCell>
        <mxCell id="36Q72L7F-0GuTDko1-9C-73" value="" style="endArrow=none;html=1;rounded=0;entryX=1.001;entryY=0.797;entryDx=0;entryDy=0;entryPerimeter=0;strokeWidth=4;" parent="36Q72L7F-0GuTDko1-9C-70" edge="1">
          <mxGeometry width="50" height="50" relative="1" as="geometry">
            <mxPoint x="281" y="170" as="sourcePoint" />
            <mxPoint y="170" as="targetPoint" />
          </mxGeometry>
        </mxCell>
        <mxCell id="36Q72L7F-0GuTDko1-9C-74" value="" style="group;strokeWidth=4;" parent="1" vertex="1" connectable="0">
          <mxGeometry x="5385" y="3070" width="560" height="820" as="geometry" />
        </mxCell>
        <mxCell id="36Q72L7F-0GuTDko1-9C-75" value="" style="strokeWidth=4;html=1;shape=mxgraph.flowchart.annotation_2;align=left;labelPosition=right;pointerEvents=1;direction=west;" parent="36Q72L7F-0GuTDko1-9C-74" vertex="1">
          <mxGeometry width="560" height="820" as="geometry" />
        </mxCell>
        <mxCell id="36Q72L7F-0GuTDko1-9C-76" value="" style="endArrow=none;html=1;rounded=0;entryX=1.001;entryY=0.797;entryDx=0;entryDy=0;entryPerimeter=0;strokeWidth=4;" parent="36Q72L7F-0GuTDko1-9C-74" target="36Q72L7F-0GuTDko1-9C-75" edge="1">
          <mxGeometry width="50" height="50" relative="1" as="geometry">
            <mxPoint x="280" y="166" as="sourcePoint" />
            <mxPoint x="300" y="290" as="targetPoint" />
          </mxGeometry>
        </mxCell>
        <mxCell id="36Q72L7F-0GuTDko1-9C-77" value="" style="endArrow=none;html=1;rounded=0;entryX=1.001;entryY=0.797;entryDx=0;entryDy=0;entryPerimeter=0;strokeWidth=4;" parent="36Q72L7F-0GuTDko1-9C-74" edge="1">
          <mxGeometry width="50" height="50" relative="1" as="geometry">
            <mxPoint x="281" y="335" as="sourcePoint" />
            <mxPoint y="335" as="targetPoint" />
          </mxGeometry>
        </mxCell>
        <mxCell id="36Q72L7F-0GuTDko1-9C-78" value="" style="endArrow=none;html=1;rounded=0;entryX=1.001;entryY=0.797;entryDx=0;entryDy=0;entryPerimeter=0;strokeWidth=4;" parent="36Q72L7F-0GuTDko1-9C-74" edge="1">
          <mxGeometry width="50" height="50" relative="1" as="geometry">
            <mxPoint x="281" y="485" as="sourcePoint" />
            <mxPoint y="485" as="targetPoint" />
          </mxGeometry>
        </mxCell>
        <mxCell id="36Q72L7F-0GuTDko1-9C-79" value="" style="endArrow=none;html=1;rounded=0;entryX=1.001;entryY=0.797;entryDx=0;entryDy=0;entryPerimeter=0;strokeWidth=4;" parent="36Q72L7F-0GuTDko1-9C-74" edge="1">
          <mxGeometry width="50" height="50" relative="1" as="geometry">
            <mxPoint x="281" y="664.3800000000001" as="sourcePoint" />
            <mxPoint y="664.3800000000001" as="targetPoint" />
          </mxGeometry>
        </mxCell>
        <mxCell id="36Q72L7F-0GuTDko1-9C-80" value="" style="group;strokeWidth=4;" parent="1" vertex="1" connectable="0">
          <mxGeometry x="5385" y="7140" width="560" height="520" as="geometry" />
        </mxCell>
        <mxCell id="36Q72L7F-0GuTDko1-9C-81" value="" style="strokeWidth=4;html=1;shape=mxgraph.flowchart.annotation_2;align=left;labelPosition=right;pointerEvents=1;direction=east;" parent="36Q72L7F-0GuTDko1-9C-80" vertex="1">
          <mxGeometry width="560" height="520" as="geometry" />
        </mxCell>
        <mxCell id="36Q72L7F-0GuTDko1-9C-82" value="" style="endArrow=none;html=1;rounded=0;entryX=1.001;entryY=0.797;entryDx=0;entryDy=0;entryPerimeter=0;strokeWidth=4;" parent="36Q72L7F-0GuTDko1-9C-80" edge="1">
          <mxGeometry width="50" height="50" relative="1" as="geometry">
            <mxPoint x="560" y="334" as="sourcePoint" />
            <mxPoint x="279" y="334" as="targetPoint" />
          </mxGeometry>
        </mxCell>
        <mxCell id="36Q72L7F-0GuTDko1-9C-83" value="" style="endArrow=none;html=1;rounded=0;entryX=1.001;entryY=0.797;entryDx=0;entryDy=0;entryPerimeter=0;strokeWidth=4;" parent="36Q72L7F-0GuTDko1-9C-80" edge="1">
          <mxGeometry width="50" height="50" relative="1" as="geometry">
            <mxPoint x="560" y="169" as="sourcePoint" />
            <mxPoint x="279" y="169" as="targetPoint" />
          </mxGeometry>
        </mxCell>
        <mxCell id="36Q72L7F-0GuTDko1-9C-84" value="" style="group;strokeWidth=4;" parent="1" vertex="1" connectable="0">
          <mxGeometry x="5385" y="6410" width="560" height="520" as="geometry" />
        </mxCell>
        <mxCell id="36Q72L7F-0GuTDko1-9C-85" value="" style="strokeWidth=4;html=1;shape=mxgraph.flowchart.annotation_2;align=left;labelPosition=right;pointerEvents=1;direction=east;" parent="36Q72L7F-0GuTDko1-9C-84" vertex="1">
          <mxGeometry width="560" height="520" as="geometry" />
        </mxCell>
        <mxCell id="36Q72L7F-0GuTDko1-9C-86" value="" style="endArrow=none;html=1;rounded=0;entryX=1.001;entryY=0.797;entryDx=0;entryDy=0;entryPerimeter=0;strokeWidth=4;" parent="36Q72L7F-0GuTDko1-9C-84" edge="1">
          <mxGeometry width="50" height="50" relative="1" as="geometry">
            <mxPoint x="560" y="344" as="sourcePoint" />
            <mxPoint x="279" y="344" as="targetPoint" />
          </mxGeometry>
        </mxCell>
        <mxCell id="36Q72L7F-0GuTDko1-9C-87" value="" style="endArrow=none;html=1;rounded=0;entryX=1.001;entryY=0.797;entryDx=0;entryDy=0;entryPerimeter=0;strokeWidth=4;" parent="36Q72L7F-0GuTDko1-9C-84" edge="1">
          <mxGeometry width="50" height="50" relative="1" as="geometry">
            <mxPoint x="560" y="174" as="sourcePoint" />
            <mxPoint x="279" y="174" as="targetPoint" />
          </mxGeometry>
        </mxCell>
        <mxCell id="36Q72L7F-0GuTDko1-9C-88" value="사원" style="shape=actor;whiteSpace=wrap;html=1;fontSize=100;strokeWidth=10;" parent="1" vertex="1">
          <mxGeometry x="1620" y="5267" width="790" height="890" as="geometry" />
        </mxCell>
        <mxCell id="36Q72L7F-0GuTDko1-9C-89" style="edgeStyle=orthogonalEdgeStyle;rounded=0;orthogonalLoop=1;jettySize=auto;html=1;exitX=0.5;exitY=1;exitDx=0;exitDy=0;strokeWidth=4;" parent="1" edge="1">
          <mxGeometry relative="1" as="geometry">
            <mxPoint x="5934" y="5970" as="sourcePoint" />
            <mxPoint x="5934" y="5970" as="targetPoint" />
          </mxGeometry>
        </mxCell>
        <mxCell id="36Q72L7F-0GuTDko1-9C-90" value="" style="strokeWidth=4;html=1;shape=mxgraph.flowchart.annotation_2;align=left;labelPosition=right;pointerEvents=1;direction=east;" parent="1" vertex="1">
          <mxGeometry x="5385" y="5680" width="560" height="530" as="geometry" />
        </mxCell>
        <mxCell id="36Q72L7F-0GuTDko1-9C-91" value="" style="endArrow=none;html=1;rounded=0;entryX=1.001;entryY=0.797;entryDx=0;entryDy=0;entryPerimeter=0;strokeWidth=4;" parent="1" edge="1">
          <mxGeometry width="50" height="50" relative="1" as="geometry">
            <mxPoint x="5945" y="5859.469999999999" as="sourcePoint" />
            <mxPoint x="5664" y="5859.469999999999" as="targetPoint" />
          </mxGeometry>
        </mxCell>
        <mxCell id="36Q72L7F-0GuTDko1-9C-92" value="" style="endArrow=none;html=1;rounded=0;entryX=1.001;entryY=0.797;entryDx=0;entryDy=0;entryPerimeter=0;strokeWidth=4;" parent="1" edge="1">
          <mxGeometry width="50" height="50" relative="1" as="geometry">
            <mxPoint x="5945" y="6054.290000000001" as="sourcePoint" />
            <mxPoint x="5664" y="6054.290000000001" as="targetPoint" />
          </mxGeometry>
        </mxCell>
        <mxCell id="36Q72L7F-0GuTDko1-9C-97" value="" style="endArrow=classic;html=1;rounded=0;strokeWidth=10;exitX=0.5;exitY=1;exitDx=0;exitDy=0;" parent="1" source="36Q72L7F-0GuTDko1-9C-27" edge="1">
          <mxGeometry width="50" height="50" relative="1" as="geometry">
            <mxPoint x="1270" y="5220" as="sourcePoint" />
            <mxPoint x="3080" y="7105" as="targetPoint" />
            <Array as="points">
              <mxPoint x="700" y="7105" />
            </Array>
          </mxGeometry>
        </mxCell>
        <mxCell id="36Q72L7F-0GuTDko1-9C-98" value="" style="endArrow=classic;html=1;rounded=0;strokeWidth=10;" parent="1" edge="1">
          <mxGeometry width="50" height="50" relative="1" as="geometry">
            <mxPoint x="700" y="5838" as="sourcePoint" />
            <mxPoint x="1600" y="5838" as="targetPoint" />
            <Array as="points">
              <mxPoint x="1460" y="5838" />
            </Array>
          </mxGeometry>
        </mxCell>
        <mxCell id="36Q72L7F-0GuTDko1-9C-100" value="건의게시판" style="text;html=1;strokeColor=default;fillColor=none;align=center;verticalAlign=middle;whiteSpace=wrap;rounded=0;strokeWidth=10;fontSize=100;" parent="1" vertex="1">
          <mxGeometry x="740" y="7970" width="960" height="400" as="geometry" />
        </mxCell>
      </root>
    </mxGraphModel>
  </diagram>
</mxfile>
